# xmcd CD database file
#
# Track frame offsets:
#	150
#	28535
#	52948
#
# Disc length: 976 seconds
#
# Revision: 0
# Processed by: cddbd v1.5.1PL0 Copyright (c) Steve Scherf et al.
# Submitted via: CDex 1.51
#
DISCID=1903ce03
DTITLE=杉山清貴 - 'shade' (natsu no kageri) special remix version
DYEAR=1900
DGENRE=JPop
TTITLE0=SHADE -夏の翳り- (スペシャルリミックスバージョン)
TTITLE1=水の中のAnswer (ロングバージョン)
TTITLE2=ANGEL EYES
EXTD=
EXTT0=
EXTT1=
EXTT2=
PLAYORDER=
